<?xml version="1.0" encoding="UTF-8" standalone="no"?>
<svg
   xmlns:dc="http://purl.org/dc/elements/1.1/"
   xmlns:cc="http://creativecommons.org/ns#"
   xmlns:rdf="http://www.w3.org/1999/02/22-rdf-syntax-ns#"
   xmlns:svg="http://www.w3.org/2000/svg"
   xmlns="http://www.w3.org/2000/svg"
   xmlns:sodipodi="http://sodipodi.sourceforge.net/DTD/sodipodi-0.dtd"
   xmlns:inkscape="http://www.inkscape.org/namespaces/inkscape"
   width="64"
   height="64"
   viewBox="0 0 64 64"
   version="1.1"
   id="svg8"
   sodipodi:docname="disconnected.svg"
   inkscape:version="0.92.1 r15371">
  <metadata
     id="metadata14">
    <rdf:RDF>
      <cc:Work
         rdf:about="">
        <dc:format>image/svg+xml</dc:format>
        <dc:type
           rdf:resource="http://purl.org/dc/dcmitype/StillImage" />
        <dc:title />
      </cc:Work>
    </rdf:RDF>
  </metadata>
  <defs
     id="defs12" />
  <sodipodi:namedview
     pagecolor="#ffffff"
     bordercolor="#666666"
     borderopacity="1"
     objecttolerance="10"
     gridtolerance="10"
     guidetolerance="10"
     inkscape:pageopacity="0"
     inkscape:pageshadow="2"
     inkscape:window-width="1920"
     inkscape:window-height="1009"
     id="namedview10"
     showgrid="false"
     fit-margin-top="0"
     fit-margin-left="0"
     fit-margin-right="0"
     fit-margin-bottom="0"
     inkscape:zoom="5.430252"
     inkscape:cx="0.3255952"
     inkscape:cy="42"
     inkscape:window-x="0"
     inkscape:window-y="0"
     inkscape:window-maximized="1"
     inkscape:current-layer="svg8" />
  <path
     style="display:inline;fill:#e32828;fill-opacity:1;fill-rule:evenodd;stroke-width:0.67003286"
     inkscape:connector-curvature="0"
     id="path4"
     d="M 32,60 C 16.536121,60 4,47.464097 4,32 4,16.535903 16.536121,4 32,4 47.463879,4 60,16.535903 60,32 60,47.464097 47.463879,60 32,60 Z m -7.85038,-33.936 4.293156,6.405591 -1.399335,-4.803857 5.039733,-7.442602 8.213023,12.246459 -1.4,-4.803857 1.026712,-1.50795 11.7596,17.428144 C 54.668821,38.310458 55.695532,31.715952 53.548954,24.839422 51.402376,17.962216 46.17633,12.59229 39.455798,10.519614 23.77633,5.4323855 9.3105514,17.114121 9.3105514,32.093109 c 0,4.144675 1.1198666,8.007326 2.9863116,11.304578 z" />
</svg>
